<mxfile host="app.diagrams.net" modified="2024-04-23T08:49:18.448Z" agent="Mozilla/5.0 (Windows NT 10.0; Win64; x64) AppleWebKit/537.36 (KHTML, like Gecko) Chrome/123.0.0.0 Safari/537.36" etag="4FoO-iDi8UOCHOX7GreG" version="24.2.7" type="github">
  <diagram id="C5RBs43oDa-KdzZeNtuy" name="Page-1">
    <mxGraphModel dx="1687" dy="918" grid="1" gridSize="10" guides="1" tooltips="1" connect="1" arrows="1" fold="1" page="1" pageScale="1" pageWidth="827" pageHeight="1169" math="0" shadow="0">
      <root>
        <mxCell id="WIyWlLk6GJQsqaUBKTNV-0" />
        <mxCell id="WIyWlLk6GJQsqaUBKTNV-1" parent="WIyWlLk6GJQsqaUBKTNV-0" />
        <mxCell id="JT5BL7dFvs0LwUX9XZ8y-6" style="edgeStyle=orthogonalEdgeStyle;rounded=0;orthogonalLoop=1;jettySize=auto;html=1;entryX=0.5;entryY=0;entryDx=0;entryDy=0;" edge="1" parent="WIyWlLk6GJQsqaUBKTNV-1" source="JT5BL7dFvs0LwUX9XZ8y-1" target="JT5BL7dFvs0LwUX9XZ8y-14">
          <mxGeometry relative="1" as="geometry">
            <mxPoint x="300" y="400" as="targetPoint" />
          </mxGeometry>
        </mxCell>
        <mxCell id="JT5BL7dFvs0LwUX9XZ8y-1" value="&lt;div&gt;&lt;font style=&quot;font-size: 15px;&quot;&gt;휴대폰&lt;/font&gt;&lt;/div&gt;&lt;font style=&quot;font-size: 15px;&quot;&gt;본인 확인&lt;/font&gt;" style="strokeWidth=2;html=1;shape=mxgraph.flowchart.start_1;whiteSpace=wrap;" vertex="1" parent="WIyWlLk6GJQsqaUBKTNV-1">
          <mxGeometry x="344" y="60" width="140" height="80" as="geometry" />
        </mxCell>
        <mxCell id="JT5BL7dFvs0LwUX9XZ8y-54" style="edgeStyle=orthogonalEdgeStyle;rounded=0;orthogonalLoop=1;jettySize=auto;html=1;entryX=0.5;entryY=0;entryDx=0;entryDy=0;" edge="1" parent="WIyWlLk6GJQsqaUBKTNV-1" source="JT5BL7dFvs0LwUX9XZ8y-10" target="JT5BL7dFvs0LwUX9XZ8y-28">
          <mxGeometry relative="1" as="geometry" />
        </mxCell>
        <mxCell id="JT5BL7dFvs0LwUX9XZ8y-55" style="edgeStyle=orthogonalEdgeStyle;rounded=0;orthogonalLoop=1;jettySize=auto;html=1;" edge="1" parent="WIyWlLk6GJQsqaUBKTNV-1" source="JT5BL7dFvs0LwUX9XZ8y-10" target="JT5BL7dFvs0LwUX9XZ8y-40">
          <mxGeometry relative="1" as="geometry" />
        </mxCell>
        <mxCell id="JT5BL7dFvs0LwUX9XZ8y-10" value="&lt;font style=&quot;font-size: 15px;&quot;&gt;PASS 사용 유무&lt;/font&gt;" style="rhombus;whiteSpace=wrap;html=1;" vertex="1" parent="WIyWlLk6GJQsqaUBKTNV-1">
          <mxGeometry x="349" y="420" width="130" height="125" as="geometry" />
        </mxCell>
        <mxCell id="JT5BL7dFvs0LwUX9XZ8y-17" style="edgeStyle=orthogonalEdgeStyle;rounded=0;orthogonalLoop=1;jettySize=auto;html=1;" edge="1" parent="WIyWlLk6GJQsqaUBKTNV-1" source="JT5BL7dFvs0LwUX9XZ8y-14" target="JT5BL7dFvs0LwUX9XZ8y-10">
          <mxGeometry relative="1" as="geometry" />
        </mxCell>
        <mxCell id="JT5BL7dFvs0LwUX9XZ8y-14" value="&lt;span style=&quot;font-size: 15px;&quot;&gt;이동 통신사 선택&lt;/span&gt;" style="shape=parallelogram;perimeter=parallelogramPerimeter;whiteSpace=wrap;html=1;fixedSize=1;" vertex="1" parent="WIyWlLk6GJQsqaUBKTNV-1">
          <mxGeometry x="334" y="240" width="160" height="80" as="geometry" />
        </mxCell>
        <mxCell id="JT5BL7dFvs0LwUX9XZ8y-25" value="NO" style="edgeLabel;html=1;align=center;verticalAlign=middle;resizable=0;points=[];fontSize=16;" vertex="1" connectable="0" parent="WIyWlLk6GJQsqaUBKTNV-1">
          <mxGeometry x="594.9952941176473" y="373" as="geometry">
            <mxPoint x="-46" y="108" as="offset" />
          </mxGeometry>
        </mxCell>
        <mxCell id="JT5BL7dFvs0LwUX9XZ8y-36" style="edgeStyle=orthogonalEdgeStyle;rounded=0;orthogonalLoop=1;jettySize=auto;html=1;entryX=0;entryY=0.5;entryDx=0;entryDy=0;" edge="1" parent="WIyWlLk6GJQsqaUBKTNV-1" source="JT5BL7dFvs0LwUX9XZ8y-28" target="JT5BL7dFvs0LwUX9XZ8y-42">
          <mxGeometry relative="1" as="geometry">
            <mxPoint x="915" y="620" as="targetPoint" />
          </mxGeometry>
        </mxCell>
        <mxCell id="JT5BL7dFvs0LwUX9XZ8y-80" style="edgeStyle=orthogonalEdgeStyle;rounded=0;orthogonalLoop=1;jettySize=auto;html=1;entryX=0;entryY=0.5;entryDx=0;entryDy=0;" edge="1" parent="WIyWlLk6GJQsqaUBKTNV-1" source="JT5BL7dFvs0LwUX9XZ8y-28" target="JT5BL7dFvs0LwUX9XZ8y-48">
          <mxGeometry relative="1" as="geometry">
            <mxPoint x="414.5" y="960" as="targetPoint" />
            <Array as="points">
              <mxPoint x="415" y="952" />
            </Array>
          </mxGeometry>
        </mxCell>
        <mxCell id="JT5BL7dFvs0LwUX9XZ8y-28" value="&lt;span style=&quot;font-size: 15px;&quot;&gt;QR 코드 인증&lt;/span&gt;" style="rhombus;whiteSpace=wrap;html=1;" vertex="1" parent="WIyWlLk6GJQsqaUBKTNV-1">
          <mxGeometry x="350" y="650" width="129" height="125" as="geometry" />
        </mxCell>
        <mxCell id="JT5BL7dFvs0LwUX9XZ8y-31" value="YES" style="edgeLabel;html=1;align=center;verticalAlign=middle;resizable=0;points=[];fontSize=16;" vertex="1" connectable="0" parent="WIyWlLk6GJQsqaUBKTNV-1">
          <mxGeometry x="459.9952941176473" y="483.5" as="geometry">
            <mxPoint x="-46" y="108" as="offset" />
          </mxGeometry>
        </mxCell>
        <mxCell id="JT5BL7dFvs0LwUX9XZ8y-37" value="NO" style="edgeLabel;html=1;align=center;verticalAlign=middle;resizable=0;points=[];fontSize=16;" vertex="1" connectable="0" parent="WIyWlLk6GJQsqaUBKTNV-1">
          <mxGeometry x="594.9952941176473" y="603.5" as="geometry">
            <mxPoint x="-46" y="108" as="offset" />
          </mxGeometry>
        </mxCell>
        <mxCell id="JT5BL7dFvs0LwUX9XZ8y-60" style="edgeStyle=orthogonalEdgeStyle;rounded=0;orthogonalLoop=1;jettySize=auto;html=1;entryX=0.5;entryY=0;entryDx=0;entryDy=0;" edge="1" parent="WIyWlLk6GJQsqaUBKTNV-1" source="JT5BL7dFvs0LwUX9XZ8y-40" target="JT5BL7dFvs0LwUX9XZ8y-42">
          <mxGeometry relative="1" as="geometry" />
        </mxCell>
        <mxCell id="JT5BL7dFvs0LwUX9XZ8y-40" value="&lt;font style=&quot;font-size: 15px;&quot;&gt;문자(SMS) 인증&lt;/font&gt;" style="rounded=1;whiteSpace=wrap;html=1;absoluteArcSize=1;arcSize=14;strokeWidth=2;" vertex="1" parent="WIyWlLk6GJQsqaUBKTNV-1">
          <mxGeometry x="625" y="438.5" width="150" height="90" as="geometry" />
        </mxCell>
        <mxCell id="JT5BL7dFvs0LwUX9XZ8y-49" style="edgeStyle=orthogonalEdgeStyle;rounded=0;orthogonalLoop=1;jettySize=auto;html=1;" edge="1" parent="WIyWlLk6GJQsqaUBKTNV-1" source="JT5BL7dFvs0LwUX9XZ8y-42" target="JT5BL7dFvs0LwUX9XZ8y-48">
          <mxGeometry relative="1" as="geometry" />
        </mxCell>
        <mxCell id="JT5BL7dFvs0LwUX9XZ8y-42" value="&lt;font style=&quot;font-size: 15px;&quot;&gt;본인 확인&lt;/font&gt;&lt;div&gt;&lt;font style=&quot;font-size: 15px;&quot;&gt;&amp;nbsp;정보 입력&lt;/font&gt;&lt;/div&gt;" style="shape=parallelogram;perimeter=parallelogramPerimeter;whiteSpace=wrap;html=1;fixedSize=1;" vertex="1" parent="WIyWlLk6GJQsqaUBKTNV-1">
          <mxGeometry x="620" y="672.5" width="160" height="80" as="geometry" />
        </mxCell>
        <mxCell id="JT5BL7dFvs0LwUX9XZ8y-75" style="edgeStyle=orthogonalEdgeStyle;rounded=0;orthogonalLoop=1;jettySize=auto;html=1;entryX=1;entryY=0.5;entryDx=0;entryDy=0;" edge="1" parent="WIyWlLk6GJQsqaUBKTNV-1" source="JT5BL7dFvs0LwUX9XZ8y-48" target="JT5BL7dFvs0LwUX9XZ8y-42">
          <mxGeometry relative="1" as="geometry">
            <mxPoint x="910" y="710" as="targetPoint" />
            <Array as="points">
              <mxPoint x="890" y="952" />
              <mxPoint x="890" y="712" />
            </Array>
          </mxGeometry>
        </mxCell>
        <mxCell id="JT5BL7dFvs0LwUX9XZ8y-78" style="edgeStyle=orthogonalEdgeStyle;rounded=0;orthogonalLoop=1;jettySize=auto;html=1;entryX=0.5;entryY=0;entryDx=0;entryDy=0;" edge="1" parent="WIyWlLk6GJQsqaUBKTNV-1" source="JT5BL7dFvs0LwUX9XZ8y-48">
          <mxGeometry relative="1" as="geometry">
            <mxPoint x="700" y="1140" as="targetPoint" />
          </mxGeometry>
        </mxCell>
        <mxCell id="JT5BL7dFvs0LwUX9XZ8y-48" value="&lt;span style=&quot;font-size: 15px;&quot;&gt;유효성&amp;nbsp; 체크&lt;/span&gt;" style="rhombus;whiteSpace=wrap;html=1;" vertex="1" parent="WIyWlLk6GJQsqaUBKTNV-1">
          <mxGeometry x="635" y="890" width="130" height="125" as="geometry" />
        </mxCell>
        <mxCell id="JT5BL7dFvs0LwUX9XZ8y-57" value="YES" style="edgeLabel;html=1;align=center;verticalAlign=middle;resizable=0;points=[];fontSize=16;" vertex="1" connectable="0" parent="WIyWlLk6GJQsqaUBKTNV-1">
          <mxGeometry x="459.9952941176473" y="720" as="geometry">
            <mxPoint x="-46" y="108" as="offset" />
          </mxGeometry>
        </mxCell>
        <mxCell id="JT5BL7dFvs0LwUX9XZ8y-72" value="YES" style="edgeLabel;html=1;align=center;verticalAlign=middle;resizable=0;points=[];fontSize=16;" vertex="1" connectable="0" parent="WIyWlLk6GJQsqaUBKTNV-1">
          <mxGeometry x="744.9952941176473" y="970" as="geometry">
            <mxPoint x="-46" y="108" as="offset" />
          </mxGeometry>
        </mxCell>
        <mxCell id="JT5BL7dFvs0LwUX9XZ8y-76" value="NO" style="edgeLabel;html=1;align=center;verticalAlign=middle;resizable=0;points=[];fontSize=16;" vertex="1" connectable="0" parent="WIyWlLk6GJQsqaUBKTNV-1">
          <mxGeometry x="933.9952941176473" y="720" as="geometry">
            <mxPoint x="-46" y="108" as="offset" />
          </mxGeometry>
        </mxCell>
        <mxCell id="JT5BL7dFvs0LwUX9XZ8y-84" style="edgeStyle=orthogonalEdgeStyle;rounded=0;orthogonalLoop=1;jettySize=auto;html=1;entryX=1;entryY=0.5;entryDx=0;entryDy=0;" edge="1" parent="WIyWlLk6GJQsqaUBKTNV-1" source="JT5BL7dFvs0LwUX9XZ8y-83" target="JT5BL7dFvs0LwUX9XZ8y-42">
          <mxGeometry relative="1" as="geometry">
            <mxPoint x="990" y="710" as="targetPoint" />
            <Array as="points">
              <mxPoint x="1010" y="1202" />
              <mxPoint x="1010" y="712" />
            </Array>
          </mxGeometry>
        </mxCell>
        <mxCell id="JT5BL7dFvs0LwUX9XZ8y-86" style="edgeStyle=orthogonalEdgeStyle;rounded=0;orthogonalLoop=1;jettySize=auto;html=1;" edge="1" parent="WIyWlLk6GJQsqaUBKTNV-1" source="JT5BL7dFvs0LwUX9XZ8y-83">
          <mxGeometry relative="1" as="geometry">
            <mxPoint x="700" y="1390" as="targetPoint" />
          </mxGeometry>
        </mxCell>
        <mxCell id="JT5BL7dFvs0LwUX9XZ8y-83" value="&lt;span style=&quot;font-size: 15px;&quot;&gt;인증 성공&lt;/span&gt;&lt;div&gt;&lt;span style=&quot;font-size: 15px;&quot;&gt;여부&lt;/span&gt;&lt;/div&gt;" style="rhombus;whiteSpace=wrap;html=1;" vertex="1" parent="WIyWlLk6GJQsqaUBKTNV-1">
          <mxGeometry x="635" y="1140" width="130" height="125" as="geometry" />
        </mxCell>
        <mxCell id="JT5BL7dFvs0LwUX9XZ8y-85" value="NO" style="edgeLabel;html=1;align=center;verticalAlign=middle;resizable=0;points=[];fontSize=16;" vertex="1" connectable="0" parent="WIyWlLk6GJQsqaUBKTNV-1">
          <mxGeometry x="933.9952941176473" y="1093" as="geometry">
            <mxPoint x="-46" y="108" as="offset" />
          </mxGeometry>
        </mxCell>
        <mxCell id="JT5BL7dFvs0LwUX9XZ8y-87" value="YES" style="edgeLabel;html=1;align=center;verticalAlign=middle;resizable=0;points=[];fontSize=16;" vertex="1" connectable="0" parent="WIyWlLk6GJQsqaUBKTNV-1">
          <mxGeometry x="744.9952941176473" y="1216" as="geometry">
            <mxPoint x="-46" y="108" as="offset" />
          </mxGeometry>
        </mxCell>
        <mxCell id="JT5BL7dFvs0LwUX9XZ8y-88" value="&lt;span style=&quot;font-size: 15px;&quot;&gt;본인 확인 성공&lt;/span&gt;" style="rounded=1;whiteSpace=wrap;html=1;absoluteArcSize=1;arcSize=14;strokeWidth=2;" vertex="1" parent="WIyWlLk6GJQsqaUBKTNV-1">
          <mxGeometry x="625" y="1390" width="150" height="90" as="geometry" />
        </mxCell>
        <mxCell id="JT5BL7dFvs0LwUX9XZ8y-90" value="&lt;div&gt;&lt;span style=&quot;font-size: 15px;&quot;&gt;휴대폰&lt;/span&gt;&lt;/div&gt;&lt;span style=&quot;font-size: 15px;&quot;&gt;본인 확인 종료&lt;/span&gt;" style="strokeWidth=2;html=1;shape=mxgraph.flowchart.start_1;whiteSpace=wrap;" vertex="1" parent="WIyWlLk6GJQsqaUBKTNV-1">
          <mxGeometry x="630" y="1580" width="140" height="80" as="geometry" />
        </mxCell>
        <mxCell id="JT5BL7dFvs0LwUX9XZ8y-91" style="edgeStyle=orthogonalEdgeStyle;rounded=0;orthogonalLoop=1;jettySize=auto;html=1;entryX=0.5;entryY=0;entryDx=0;entryDy=0;entryPerimeter=0;" edge="1" parent="WIyWlLk6GJQsqaUBKTNV-1" source="JT5BL7dFvs0LwUX9XZ8y-88" target="JT5BL7dFvs0LwUX9XZ8y-90">
          <mxGeometry relative="1" as="geometry" />
        </mxCell>
        <mxCell id="JT5BL7dFvs0LwUX9XZ8y-93" style="edgeStyle=orthogonalEdgeStyle;rounded=0;orthogonalLoop=1;jettySize=auto;html=1;entryX=0.75;entryY=0;entryDx=0;entryDy=0;" edge="1" parent="WIyWlLk6GJQsqaUBKTNV-1" source="JT5BL7dFvs0LwUX9XZ8y-92" target="JT5BL7dFvs0LwUX9XZ8y-42">
          <mxGeometry relative="1" as="geometry" />
        </mxCell>
        <mxCell id="JT5BL7dFvs0LwUX9XZ8y-92" value="&lt;b style=&quot;&quot;&gt;&lt;font style=&quot;font-size: 17px;&quot;&gt;본인 인증 정보&lt;/font&gt;&lt;/b&gt;&lt;div&gt;&lt;span style=&quot;font-size: 15px;&quot;&gt;이름&lt;/span&gt;&lt;/div&gt;&lt;div&gt;&lt;span style=&quot;font-size: 15px;&quot;&gt;휴대폰 번호&lt;/span&gt;&lt;/div&gt;&lt;div&gt;&lt;span style=&quot;font-size: 15px;&quot;&gt;생년월일(문자 인증일 때만 입력)&lt;br&gt;&lt;/span&gt;&lt;div&gt;&lt;span style=&quot;font-size: 15px;&quot;&gt;보안문자&lt;/span&gt;&lt;/div&gt;&lt;/div&gt;" style="strokeWidth=2;html=1;shape=mxgraph.flowchart.annotation_2;align=left;labelPosition=right;pointerEvents=1;" vertex="1" parent="WIyWlLk6GJQsqaUBKTNV-1">
          <mxGeometry x="790" y="560" width="50" height="100" as="geometry" />
        </mxCell>
      </root>
    </mxGraphModel>
  </diagram>
</mxfile>
